<svg xmlns="http://www.w3.org/2000/svg" viewBox="0 0 32 32">
  <rect width="32" height="32" rx="6" fill="#003049"/>
  <path d="M16 6c-1.5 0-2.8 0.2-3.9 0.7-1.1 0.5-1.9 1.2-2.4 2.2-0.5 1-0.8 2.3-0.8 3.9 0 1.1 0.1 2 0.3 2.8 0.2 0.8 0.6 1.4 1 1.9 0.5 0.5 1.1 0.9 1.9 1.1l-3.1 7.4h3l2.9-7h2.4v7h3.1V6H16zm0.9 9.3h-1.2c-0.9 0-1.6-0.1-2.1-0.4-0.5-0.2-0.9-0.6-1.2-1.2-0.2-0.6-0.4-1.3-0.4-2.3 0-1.4 0.3-2.4 0.8-3 0.5-0.6 1.3-0.9 2.6-0.9h1.4v7.8z" fill="white"/>
  <circle cx="26" cy="8" r="3" fill="#c1121f"/>
</svg>
